# xmcd
#
# Track frame offsets:
#	150
#	17922
#	40967
#	53817
#	70808
#	85498
#	104633
#	123403
#	142552
#	161288
#	181548
#
# Disc length: 2781 seconds
#
# Revision: 1
# Processed by: cddbd v1.5.2PL0 Copyright (c) Steve Scherf et al.
# Submitted via: audiograbber 1.83.01
#
DISCID=880adb0b
DTITLE=Zachariah - Spent Casings
DYEAR=2008
DGENRE=Country Rock
TTITLE0=Caroline
TTITLE1=Old Motels
TTITLE2=I Wanna Be A Lawnmower
TTITLE3=Space Change
TTITLE4=Chubby Cheeks
TTITLE5=No Reason
TTITLE6=My Favorite Year
TTITLE7=Madeline
TTITLE8=Grampa Bob's Genes
TTITLE9=Shadowheart
TTITLE10=Saguaro Prayer
EXTD=
EXTT0=
EXTT1=
EXTT2=
EXTT3=
EXTT4=
EXTT5=
EXTT6=
EXTT7=
EXTT8=
EXTT9=
EXTT10=
PLAYORDER=
